<svg version="1.1" id="Layer_1" xmlns="http://www.w3.org/2000/svg" xmlns:xlink="http://www.w3.org/1999/xlink" x="0px" y="0px"
	 width="100%" viewBox="0 0 512 512" enable-background="new 0 0 512 512" xml:space="preserve">
<path fill="#000000" opacity="1.000000" stroke="none" 
	d="
M142.000000,513.000000 
	C95.039185,513.000000 48.078365,513.000000 1.000000,513.000000 
	C1.000000,385.312469 1.000000,257.624878 1.193252,129.642944 
	C3.295358,131.926758 3.940534,129.979538 4.743662,128.431412 
	C7.051745,123.982330 10.233021,120.160904 13.631686,116.542015 
	C15.186007,114.886993 16.361809,113.108109 16.538609,110.905342 
	C17.335691,100.974335 18.395607,91.044609 16.485588,81.100410 
	C15.727228,77.152153 14.238152,73.428223 10.733232,71.590630 
	C5.260651,68.721428 4.243711,64.005257 4.049348,58.694023 
	C3.903519,54.709019 3.804399,50.712814 3.940823,46.730373 
	C4.028987,44.156700 3.359415,40.647278 6.116148,39.552467 
	C8.763999,38.500900 11.397646,40.484058 13.587791,42.449951 
	C17.018757,45.529621 19.266798,45.266090 21.313181,40.985641 
	C24.040232,35.281418 27.983475,30.737682 32.706036,26.683222 
	C36.000023,23.855228 37.928635,20.313610 37.715221,15.763314 
	C37.516380,11.523583 39.506645,8.013129 42.114429,4.928284 
	C43.446548,3.352473 44.035095,2.262596 42.000000,1.000000 
	C112.354225,1.000000 182.708450,1.000000 253.385300,1.315882 
	C250.703033,3.896029 250.190292,7.059578 250.352631,10.550516 
	C250.811035,20.409409 248.215393,29.633200 244.593689,38.690517 
	C238.981613,52.725433 229.022369,63.416489 218.055130,73.255493 
	C201.145401,88.425682 185.954514,105.218956 170.924530,122.185493 
	C167.089478,126.514671 165.069260,131.444763 165.400558,137.232254 
	C166.389511,154.508026 166.824524,171.842438 168.577469,189.041687 
	C171.801498,220.674576 177.606812,251.757996 188.173355,281.977142 
	C199.101807,313.231293 204.688232,345.693390 205.193970,378.857849 
	C205.412140,393.165253 202.729156,407.013367 194.988464,419.454620 
	C191.162125,425.604523 186.341248,429.895081 178.795593,431.636322 
	C167.577194,434.225189 156.188736,435.450134 144.885132,437.324615 
	C132.766068,439.334351 121.170074,442.704346 111.215279,450.274902 
	C97.074806,461.028625 94.140709,477.977631 103.693871,492.843689 
	C109.900780,502.502472 118.903999,507.872498 129.826675,510.700470 
	C133.860077,511.744720 138.216934,510.840179 142.000000,513.000000 
z"/>
<path fill="#000000" opacity="1.000000" stroke="none" 
	d="
M257.000000,1.000000 
	C320.354218,1.000000 383.708466,1.000000 447.283997,1.199302 
	C444.717133,7.243127 445.009064,13.416037 445.669739,19.598541 
	C445.746582,20.317463 446.485870,21.050529 447.072601,21.616911 
	C453.081573,27.417479 457.838684,34.301270 463.430054,40.461449 
	C465.228943,42.443356 467.025238,44.516670 469.628906,45.363190 
	C472.986267,46.454735 475.139954,48.835728 477.375610,51.371262 
	C483.335815,58.130890 484.887756,66.218513 486.936829,74.814560 
	C491.627808,94.493675 492.289246,114.637657 495.915588,134.388168 
	C499.227081,152.423996 494.038666,170.137405 493.138550,188.010880 
	C492.649689,197.717834 492.904907,207.189148 493.650421,216.802902 
	C494.743195,230.895782 506.888458,238.079834 513.000000,249.000000 
	C513.000000,336.905090 513.000000,424.810181 513.000000,513.000000 
	C465.979492,513.000000 418.958405,513.000000 371.821716,512.791687 
	C373.219421,511.727631 374.894379,511.725586 376.560547,511.642944 
	C384.902710,511.229095 392.741516,508.919373 399.485962,504.051025 
	C420.561340,488.838226 422.917114,462.866547 398.562408,447.383881 
	C393.477173,444.151093 387.922333,441.948700 382.130768,440.233887 
	C369.300415,436.434906 355.989838,435.380829 342.857452,433.486389 
	C329.801056,431.602875 320.824280,425.452271 315.566681,413.219543 
	C310.730927,401.968292 308.630707,390.257324 308.829346,378.217377 
	C309.351318,346.585297 314.425049,315.558838 324.629822,285.665192 
	C334.896881,255.589172 341.532074,224.904205 344.918610,193.364700 
	C346.893005,174.976913 347.374878,156.522614 348.598938,138.103119 
	C349.018585,131.788681 346.889038,126.483536 342.701447,121.685715 
	C326.800385,103.467529 310.138885,86.023888 292.248749,69.721779 
	C274.265076,53.334408 262.963226,33.585110 263.650421,8.408908 
	C263.781158,3.620044 260.638885,2.188785 257.000000,1.000000 
z"/>
<path fill="#000000" opacity="1.000000" stroke="none" 
	d="
M149.468658,513.000000 
	C153.220383,510.273468 158.087616,511.760498 162.620895,511.053711 
	C184.088272,507.706604 205.569153,504.212646 227.172882,502.040466 
	C248.009583,499.945374 268.976837,500.248718 289.890808,502.403259 
	C311.360199,504.615082 332.505981,509.013550 353.931671,511.479309 
	C357.707092,511.913788 361.614777,510.996521 365.635986,512.799194 
	C293.979095,513.000000 221.958206,513.000000 149.468658,513.000000 
z"/>
<path fill="#000000" opacity="1.000000" stroke="none" 
	d="
M1.000000,35.468658 
	C3.096325,45.729286 2.415024,56.488430 1.173332,67.625870 
	C1.000000,57.312439 1.000000,46.624878 1.000000,35.468658 
z"/>
<path fill="#000000" opacity="1.000000" stroke="none" 
	d="
M203.674835,183.045593 
	C202.030426,173.605103 201.397797,164.493683 200.521637,155.396423 
	C199.423904,143.998260 205.336304,135.088882 210.526123,126.153488 
	C223.259628,104.229980 238.202972,83.773468 253.869125,63.853207 
	C254.679535,62.822731 255.556961,61.844952 256.037537,61.275749 
	C257.953949,61.115631 258.598450,61.942268 259.199768,62.717785 
	C277.071808,85.767403 294.365265,109.186256 308.331635,134.924301 
	C313.382935,144.233063 313.968079,153.729187 312.891632,163.895554 
	C311.345673,178.496216 309.073669,192.905716 304.161407,206.783081 
	C301.070129,215.516129 296.695679,223.577942 289.652069,229.773849 
	C284.762970,234.074554 279.688416,233.010391 276.747101,227.647018 
	C275.645966,225.639099 275.590546,224.068008 277.488037,222.386826 
	C293.296051,208.381088 296.290009,190.253647 293.998108,170.472290 
	C293.673492,167.670471 293.425079,164.841385 292.829712,162.092422 
	C289.503571,146.734177 281.221130,139.110825 265.502563,137.556931 
	C259.735199,136.986801 253.782028,136.930786 248.046005,137.668976 
	C231.730713,139.768661 224.334412,146.700851 221.060883,163.102814 
	C218.736710,174.748077 218.207184,186.537247 221.440277,198.198181 
	C223.848999,206.885849 227.959457,214.629974 234.737061,220.678131 
	C237.558487,223.195877 239.359772,225.310898 236.337372,228.918839 
	C233.349228,232.485870 230.072662,233.457886 226.291885,231.123886 
	C222.834579,228.989578 220.359863,225.838440 218.016815,222.563553 
	C209.635361,210.848755 206.647095,197.175507 203.674835,183.045593 
z"/>
</svg>